<?xml version="1.0" standalone="no"?>
<!DOCTYPE svg PUBLIC "-//W3C//DTD SVG 20010904//EN"
 "http://www.w3.org/TR/2001/REC-SVG-20010904/DTD/svg10.dtd">
<svg version="1.0" xmlns="http://www.w3.org/2000/svg"
 width="1325.000000pt" height="1325.000000pt" viewBox="0 0 1325.000000 1325.000000"
 preserveAspectRatio="xMidYMid meet">
<metadata>
Created by potrace 1.14, written by Peter Selinger 2001-2017
</metadata>
<g transform="translate(0.000000,1325.000000) scale(0.100000,-0.100000)"
fill="#000000" stroke="none">
<path d="M6275 13209 c-203 -11 -398 -29 -440 -39 -22 -5 -78 -12 -125 -16
-47 -3 -89 -9 -95 -13 -5 -3 -46 -11 -90 -18 -179 -26 -221 -34 -240 -43 -11
-5 -45 -12 -75 -16 -30 -3 -59 -10 -65 -14 -5 -4 -32 -11 -60 -15 -27 -4 -54
-10 -60 -13 -10 -7 -72 -23 -172 -44 -29 -6 -53 -15 -53 -20 0 -4 -12 -8 -27
-8 -16 0 -40 -6 -55 -14 -14 -8 -45 -17 -67 -21 -23 -4 -43 -10 -46 -15 -3 -5
-23 -11 -45 -15 -22 -4 -42 -10 -45 -15 -3 -5 -23 -11 -45 -15 -22 -4 -42 -11
-46 -16 -3 -5 -13 -9 -22 -9 -9 0 -30 -7 -46 -15 -15 -8 -33 -15 -40 -15 -6 0
-22 -6 -36 -13 -14 -7 -47 -21 -75 -31 -45 -17 -105 -42 -160 -66 -11 -5 -42
-18 -70 -30 -27 -12 -64 -28 -82 -36 -17 -8 -36 -14 -42 -14 -6 0 -11 -4 -11
-10 0 -5 -9 -10 -19 -10 -11 0 -26 -7 -35 -15 -8 -8 -29 -18 -45 -21 -17 -4
-29 -10 -26 -14 3 -4 -7 -11 -22 -15 -16 -3 -30 -10 -33 -13 -7 -10 -95 -52
-109 -52 -6 0 -11 -3 -11 -7 0 -5 -25 -19 -55 -33 -30 -14 -55 -28 -55 -32 0
-5 -6 -8 -13 -8 -8 0 -33 -13 -55 -30 -23 -16 -46 -30 -50 -30 -5 0 -27 -13
-50 -30 -23 -16 -56 -38 -74 -47 -36 -20 -90 -55 -98 -63 -3 -3 -27 -16 -55
-30 -27 -14 -58 -35 -68 -47 -10 -13 -24 -23 -30 -24 -7 0 -32 -16 -57 -34
-25 -19 -85 -62 -135 -97 -101 -69 -104 -72 -146 -110 -16 -16 -34 -28 -39
-28 -6 0 -22 -13 -37 -30 -14 -16 -31 -30 -38 -30 -6 0 -22 -13 -35 -30 -14
-16 -28 -29 -32 -30 -9 0 -15 -5 -108 -90 -36 -33 -68 -60 -71 -60 -6 0 -43
-35 -214 -200 -97 -94 -202 -204 -315 -329 -30 -34 -66 -73 -80 -89 -14 -15
-43 -49 -65 -77 -21 -27 -42 -52 -45 -55 -4 -4 -59 -74 -123 -155 -4 -5 -17
-21 -28 -35 -12 -14 -29 -36 -38 -50 -18 -28 -22 -34 -51 -69 -11 -13 -20 -30
-20 -38 0 -7 -4 -13 -9 -13 -5 0 -26 -27 -47 -60 -21 -33 -42 -60 -46 -60 -4
0 -8 -5 -8 -10 0 -6 -8 -23 -19 -38 -56 -81 -111 -169 -111 -179 0 -6 -4 -13
-8 -15 -11 -4 -82 -123 -82 -137 0 -6 -4 -11 -9 -11 -5 0 -13 -10 -17 -22 -3
-12 -13 -28 -20 -36 -8 -7 -14 -20 -14 -28 0 -8 -3 -14 -7 -14 -5 0 -19 -25
-33 -55 -14 -30 -28 -55 -32 -55 -3 0 -9 -13 -13 -30 -4 -16 -10 -30 -15 -30
-5 0 -11 -13 -15 -30 -4 -16 -10 -30 -15 -30 -5 0 -11 -13 -15 -30 -4 -16 -10
-30 -15 -30 -5 0 -11 -13 -15 -30 -4 -16 -10 -30 -15 -30 -5 0 -11 -13 -15
-30 -4 -16 -11 -30 -16 -30 -5 0 -9 -5 -9 -11 0 -9 -13 -40 -50 -124 -37 -84
-50 -115 -50 -124 0 -6 -4 -11 -10 -11 -5 0 -10 -7 -10 -16 0 -14 -21 -69 -56
-151 -8 -17 -14 -35 -14 -41 0 -5 -7 -23 -15 -38 -8 -16 -15 -37 -15 -46 0 -9
-4 -19 -9 -22 -5 -4 -12 -24 -16 -46 -4 -22 -10 -42 -15 -45 -5 -3 -11 -23
-15 -45 -4 -22 -10 -42 -15 -45 -5 -3 -11 -23 -15 -46 -4 -22 -13 -53 -21 -67
-8 -15 -14 -39 -14 -54 0 -16 -4 -28 -9 -28 -5 0 -12 -22 -16 -50 -4 -27 -11
-52 -15 -55 -5 -3 -12 -30 -15 -60 -4 -31 -11 -58 -15 -60 -5 -3 -12 -30 -15
-60 -4 -31 -11 -58 -15 -60 -5 -3 -12 -34 -15 -70 -4 -36 -11 -67 -15 -70 -5
-3 -11 -33 -15 -67 -3 -35 -10 -72 -15 -83 -5 -11 -14 -56 -20 -100 -5 -44
-14 -118 -20 -165 -6 -47 -15 -107 -21 -135 -10 -53 -26 -232 -39 -460 -10
-166 -10 -545 1 -700 15 -230 29 -382 38 -430 6 -27 15 -86 20 -130 6 -44 17
-120 25 -170 8 -49 20 -121 26 -160 6 -38 14 -77 17 -85 6 -14 15 -52 43 -190
6 -30 14 -62 17 -70 8 -18 29 -103 45 -177 6 -29 15 -53 19 -53 3 0 10 -20 13
-45 4 -24 11 -47 15 -50 5 -2 12 -25 15 -50 4 -24 11 -47 16 -50 4 -3 11 -23
15 -45 4 -22 10 -42 15 -45 5 -3 11 -23 15 -45 4 -22 11 -42 16 -46 5 -3 9
-13 9 -22 0 -9 7 -30 15 -46 8 -15 15 -33 15 -38 0 -10 34 -91 50 -120 6 -10
10 -23 10 -28 0 -6 9 -32 21 -58 18 -42 29 -68 59 -137 5 -11 25 -55 44 -97
20 -42 36 -81 36 -87 0 -6 4 -11 9 -11 5 0 12 -14 16 -30 4 -17 10 -30 15 -30
5 0 11 -13 15 -30 4 -16 10 -30 15 -30 5 0 11 -14 15 -30 4 -17 10 -30 15 -30
5 0 11 -14 15 -30 4 -17 10 -30 13 -30 4 0 18 -25 32 -55 14 -30 28 -55 33
-55 4 0 7 -6 7 -14 0 -8 6 -21 14 -28 7 -8 17 -24 20 -36 4 -12 12 -22 17 -22
5 0 9 -5 9 -11 0 -12 69 -130 81 -139 3 -3 9 -15 13 -27 4 -13 12 -23 17 -23
5 0 9 -4 9 -9 0 -8 57 -101 77 -126 5 -5 33 -47 62 -92 30 -46 58 -83 63 -83
4 0 8 -5 8 -10 0 -11 34 -63 58 -89 7 -7 21 -26 30 -40 22 -34 31 -46 65 -82
15 -16 27 -32 27 -35 0 -8 69 -94 97 -121 13 -12 23 -26 23 -30 0 -5 8 -15 18
-24 9 -8 31 -32 47 -53 93 -117 446 -482 529 -547 15 -12 49 -43 75 -68 26
-25 60 -57 77 -70 16 -13 47 -40 69 -58 22 -19 54 -45 70 -59 17 -13 48 -40
70 -59 22 -19 43 -35 47 -35 4 0 21 -12 37 -28 36 -33 48 -42 82 -64 14 -9 33
-23 40 -30 26 -24 78 -58 89 -58 5 0 10 -5 10 -10 0 -6 8 -14 17 -17 10 -4 23
-12 29 -17 13 -12 11 -11 147 -101 54 -36 103 -65 108 -65 5 0 9 -4 9 -9 0 -5
10 -13 22 -17 13 -4 25 -10 28 -13 9 -12 127 -81 139 -81 6 0 11 -4 11 -8 0
-4 12 -13 28 -20 15 -6 43 -21 62 -33 19 -12 60 -35 90 -51 30 -17 60 -34 66
-39 6 -5 14 -6 17 -2 4 3 7 1 7 -5 0 -7 7 -12 15 -12 8 0 72 -29 141 -65 70
-36 133 -65 140 -65 8 0 14 -4 14 -10 0 -5 6 -10 13 -10 6 -1 30 -9 52 -20 22
-11 48 -19 58 -20 9 0 17 -4 17 -10 0 -5 6 -10 13 -10 6 -1 30 -9 52 -20 22
-11 46 -19 53 -20 7 0 20 -4 30 -10 41 -23 113 -50 131 -50 12 0 21 -4 21 -10
0 -5 16 -12 37 -16 20 -4 48 -13 62 -20 14 -8 32 -14 39 -14 7 0 20 -4 30 -9
9 -5 51 -19 92 -31 41 -12 82 -26 91 -30 9 -5 34 -12 55 -16 22 -3 44 -10 49
-14 6 -4 30 -11 55 -15 24 -4 51 -11 60 -16 8 -4 38 -13 65 -19 28 -7 77 -18
110 -27 110 -28 304 -66 420 -84 39 -6 84 -14 100 -19 17 -5 91 -14 165 -19
138 -12 292 -28 345 -37 138 -24 825 -27 990 -4 39 6 122 14 185 20 63 5 165
16 225 24 61 8 146 20 190 26 44 6 89 15 100 20 11 5 49 12 85 16 36 3 70 10
75 14 6 4 35 11 65 15 30 4 61 11 70 15 8 4 38 13 65 18 104 21 150 33 165 41
9 5 36 12 60 16 25 4 50 11 55 15 6 4 29 11 52 15 24 4 45 11 49 16 3 5 15 9
27 9 12 0 34 6 49 14 14 8 45 17 67 21 23 4 43 11 47 16 3 5 13 9 22 9 9 0 29
6 43 14 14 7 42 16 62 20 21 4 37 11 37 16 0 6 9 10 21 10 18 0 90 27 131 50
10 6 23 10 30 10 7 1 31 9 53 20 22 11 46 19 53 20 6 0 12 5 12 10 0 6 8 10
18 10 9 1 35 9 57 20 22 11 46 19 53 20 6 0 12 5 12 10 0 6 7 10 15 10 8 0 32
9 52 20 21 11 43 20 50 20 7 0 13 4 13 9 0 5 14 12 30 16 17 4 30 10 30 15 0
5 14 11 30 15 17 4 30 10 30 15 0 4 12 11 27 15 15 3 30 10 33 13 3 4 28 18
55 31 28 14 52 27 55 30 3 3 25 16 50 29 60 31 104 56 110 62 3 3 22 14 43 24
21 11 48 28 59 38 12 10 27 18 35 18 7 0 13 4 13 9 0 5 11 12 25 15 14 4 25
11 25 16 0 6 7 10 15 10 9 0 18 7 21 15 4 8 11 15 17 15 14 0 167 101 167 111
0 4 11 10 25 13 14 4 25 11 25 16 0 6 7 10 15 10 9 0 18 7 21 15 4 8 12 15 19
15 6 0 20 9 30 20 10 11 23 20 28 20 5 0 20 11 33 25 13 14 25 25 28 25 7 0
99 69 106 80 3 4 10 9 16 11 13 4 72 51 113 89 15 14 49 43 77 65 27 22 81 70
119 106 39 37 93 86 120 110 58 50 312 305 400 401 63 70 83 92 143 166 20 25
48 58 62 73 34 37 84 100 88 111 4 8 25 35 70 85 12 14 22 30 22 35 0 5 11 19
25 32 14 13 25 28 25 33 0 5 9 18 20 28 11 10 20 24 20 30 0 7 7 15 15 19 8 3
15 12 15 20 0 8 3 16 8 18 11 4 172 247 172 258 0 6 4 10 9 10 5 0 13 10 17
23 4 12 10 24 13 27 12 8 81 127 81 138 0 6 3 12 8 14 7 3 25 32 64 108 13 25
26 47 29 50 3 3 16 28 30 55 13 28 27 52 31 55 3 3 10 18 13 33 4 15 11 27 15
27 5 0 11 14 15 30 4 17 10 30 15 30 5 0 11 14 15 30 4 17 11 30 16 30 5 0 9
5 9 11 0 7 9 30 19 53 57 120 81 178 81 191 0 8 5 15 10 15 6 0 10 6 10 13 1
6 9 30 20 52 11 22 19 46 20 53 0 7 4 20 10 30 23 41 50 113 50 131 0 12 4 21
10 21 5 0 12 17 16 38 4 20 10 42 14 47 4 6 18 44 30 85 13 41 27 80 31 85 4
6 10 28 14 50 4 22 11 45 15 50 5 6 11 28 15 50 4 22 11 45 15 50 4 6 11 30
15 55 4 24 11 51 16 60 8 14 19 57 41 165 6 28 14 59 19 70 8 20 18 70 43 210
7 39 15 77 19 85 6 15 18 97 38 265 6 50 15 106 20 125 5 19 14 103 19 185 6
83 14 186 17 230 11 149 7 777 -5 845 -6 36 -16 121 -21 190 -12 149 -51 450
-67 510 -6 23 -13 55 -44 225 -6 33 -15 69 -19 80 -5 11 -14 45 -20 75 -6 30
-16 78 -22 105 -6 28 -14 55 -19 60 -4 6 -11 31 -14 57 -4 26 -11 50 -15 53
-5 2 -12 25 -15 50 -4 24 -11 47 -15 50 -5 2 -12 25 -15 50 -4 24 -11 47 -16
50 -4 3 -11 23 -15 45 -4 22 -11 42 -16 46 -5 3 -9 13 -9 22 0 9 -7 30 -15 46
-8 15 -15 36 -15 45 0 9 -7 29 -15 45 -8 15 -15 33 -15 38 0 10 -34 91 -50
120 -6 10 -10 23 -10 30 -1 7 -9 31 -20 53 -11 22 -19 46 -20 53 0 6 -4 12
-10 12 -5 0 -10 8 -10 18 -1 9 -9 35 -20 57 -11 22 -19 46 -20 53 0 6 -4 12
-10 12 -5 0 -10 7 -10 15 0 8 -9 32 -20 52 -11 21 -20 43 -20 50 0 7 -4 13 -9
13 -5 0 -12 14 -16 30 -4 17 -10 30 -15 30 -5 0 -11 14 -15 30 -4 17 -10 30
-15 30 -5 0 -11 14 -15 30 -4 17 -10 30 -13 30 -4 0 -18 25 -31 55 -14 30 -28
55 -32 55 -4 0 -10 12 -14 27 -3 15 -10 30 -13 33 -11 8 -31 42 -45 73 -6 15
-15 27 -19 27 -4 0 -8 5 -8 11 0 12 -69 130 -81 139 -3 3 -9 15 -13 28 -4 12
-12 22 -17 22 -5 0 -9 4 -9 9 0 8 -57 101 -77 126 -5 6 -33 47 -62 93 -30 45
-58 82 -63 82 -4 0 -8 6 -8 13 0 8 -9 22 -20 32 -11 10 -20 24 -20 31 0 7 -4
14 -8 16 -14 6 -96 122 -120 169 -13 25 -40 59 -60 74 -20 15 -53 52 -72 82
-19 30 -47 63 -62 74 -14 10 -39 39 -55 64 -15 25 -36 48 -45 51 -9 3 -31 22
-48 42 -54 63 -323 333 -369 371 -25 20 -66 56 -91 81 -63 60 -171 154 -183
159 -6 2 -20 14 -31 26 -22 23 -113 95 -121 95 -2 0 -18 12 -34 28 -36 33 -45
40 -93 72 -21 14 -38 28 -38 33 0 4 -6 7 -13 7 -8 0 -22 9 -32 20 -10 11 -24
20 -32 20 -7 0 -13 4 -13 8 0 5 -50 42 -111 82 -61 40 -125 85 -141 101 -17
15 -59 42 -94 59 -35 18 -71 42 -81 53 -10 11 -79 49 -153 86 -74 36 -137 69
-140 72 -3 4 -18 11 -33 14 -15 4 -27 11 -27 15 0 5 -13 11 -30 15 -16 4 -30
10 -30 15 0 5 -13 11 -30 15 -16 4 -30 10 -30 15 0 5 -13 11 -30 15 -16 4 -30
11 -30 16 0 5 -5 9 -11 9 -6 0 -45 16 -87 36 -81 37 -87 40 -167 74 -27 12
-64 28 -82 36 -17 8 -36 14 -42 14 -6 0 -19 4 -29 10 -36 20 -112 50 -126 50
-8 0 -17 4 -20 9 -3 5 -23 12 -43 16 -21 4 -42 10 -48 14 -5 5 -44 19 -85 31
-41 13 -79 27 -85 31 -5 4 -28 10 -49 15 -22 4 -51 13 -65 20 -14 8 -38 14
-53 14 -16 0 -28 4 -28 9 0 5 -25 13 -55 16 -30 4 -57 11 -60 15 -3 5 -24 11
-48 15 -23 3 -51 10 -62 15 -11 5 -45 14 -75 20 -133 27 -176 37 -190 43 -15
6 -94 20 -235 39 -44 7 -83 16 -86 21 -4 6 -14 7 -22 4 -8 -3 -50 1 -94 9 -43
9 -89 17 -103 20 -27 5 -239 20 -465 34 -165 9 -520 9 -690 -1z m684 -890
c206 -11 602 -55 641 -72 8 -3 47 -10 85 -16 92 -13 186 -31 205 -39 14 -5 43
-12 175 -42 28 -6 57 -15 66 -20 9 -4 37 -11 63 -15 25 -4 49 -11 51 -16 3 -4
26 -11 50 -15 25 -3 47 -10 50 -14 3 -5 23 -11 45 -15 22 -4 42 -10 45 -15 3
-5 23 -11 45 -15 22 -4 42 -10 45 -15 3 -5 23 -11 45 -15 22 -4 40 -10 40 -14
0 -3 34 -17 75 -30 41 -13 75 -28 75 -33 0 -4 8 -8 18 -8 9 -1 35 -9 57 -20
22 -11 48 -19 58 -20 9 0 17 -4 17 -10 0 -5 5 -10 11 -10 18 0 403 -184 419
-200 3 -3 28 -16 55 -30 28 -14 52 -27 55 -30 3 -3 16 -11 30 -18 32 -15 60
-33 78 -49 7 -7 20 -13 28 -13 8 0 14 -4 14 -8 0 -4 12 -13 28 -19 30 -14 59
-32 80 -50 7 -7 19 -13 27 -13 7 0 15 -7 19 -15 3 -8 12 -15 21 -15 8 0 15 -4
15 -10 0 -5 11 -12 24 -16 14 -3 27 -12 30 -20 3 -8 12 -14 21 -14 8 0 15 -3
15 -7 0 -5 18 -19 40 -33 22 -13 40 -28 40 -32 0 -4 6 -8 13 -8 8 0 22 -9 32
-20 10 -11 24 -20 31 -20 7 0 14 -4 16 -9 4 -10 95 -81 106 -81 4 -1 18 -14
32 -30 13 -17 30 -30 36 -30 7 0 14 -3 16 -7 2 -5 19 -21 38 -36 178 -145 502
-463 650 -638 19 -23 44 -51 56 -63 11 -11 38 -43 60 -71 21 -27 42 -52 45
-55 3 -3 29 -36 58 -75 30 -38 57 -71 62 -73 5 -2 9 -9 9 -16 0 -7 9 -21 20
-31 11 -10 20 -24 20 -32 0 -7 4 -13 8 -13 4 0 25 -27 46 -60 21 -33 42 -60
46 -60 4 0 11 -11 14 -25 4 -14 11 -25 16 -25 6 0 10 -7 10 -15 0 -9 7 -18 15
-21 8 -4 15 -12 15 -18 0 -7 16 -35 35 -62 19 -27 35 -55 35 -61 0 -7 4 -13 9
-13 5 0 12 -11 15 -25 4 -14 11 -25 16 -25 6 0 10 -6 10 -13 0 -8 9 -24 20
-37 11 -13 20 -29 20 -37 0 -7 4 -13 9 -13 5 0 12 -13 16 -30 4 -16 11 -30 16
-30 5 0 9 -6 9 -14 0 -8 6 -21 13 -28 22 -23 177 -345 177 -367 0 -6 4 -11 9
-11 5 0 12 -13 16 -30 4 -16 11 -30 16 -30 5 0 9 -7 9 -16 0 -14 30 -89 50
-126 6 -10 10 -23 10 -30 0 -7 6 -25 14 -40 8 -15 17 -40 21 -57 4 -17 10 -31
15 -31 4 0 11 -20 14 -45 4 -25 11 -45 17 -45 5 0 9 -10 9 -22 0 -13 7 -36 15
-52 8 -16 18 -46 21 -67 4 -22 10 -39 15 -39 5 0 9 -12 9 -27 0 -16 6 -40 14
-55 8 -14 17 -46 21 -70 4 -24 10 -47 14 -53 6 -10 24 -81 42 -170 5 -27 13
-57 16 -65 8 -17 27 -116 47 -235 8 -44 15 -80 16 -80 2 0 9 -45 17 -100 51
-363 70 -750 54 -1091 -12 -270 -34 -530 -50 -589 -6 -22 -11 -57 -11 -77 0
-20 -4 -40 -10 -43 -5 -3 -10 -25 -10 -48 -1 -23 -5 -62 -11 -87 -6 -25 -16
-74 -23 -110 -7 -36 -15 -72 -19 -80 -3 -8 -11 -37 -16 -65 -13 -64 -36 -156
-43 -175 -7 -18 -26 -87 -41 -153 -6 -26 -14 -47 -18 -47 -4 0 -11 -20 -15
-45 -3 -25 -10 -45 -15 -45 -4 0 -11 -20 -15 -45 -3 -25 -10 -45 -14 -45 -4 0
-11 -16 -14 -35 -4 -19 -13 -47 -21 -62 -8 -15 -15 -33 -15 -39 0 -7 -7 -25
-15 -40 -8 -16 -15 -37 -15 -46 0 -10 -4 -18 -9 -18 -5 0 -13 -14 -16 -32 -4
-18 -11 -39 -16 -48 -5 -8 -18 -37 -30 -65 -11 -27 -34 -77 -50 -111 -16 -33
-29 -66 -29 -72 0 -7 -4 -12 -9 -12 -5 0 -12 -14 -16 -30 -4 -17 -11 -30 -16
-30 -5 0 -9 -6 -9 -12 0 -16 -98 -207 -111 -218 -4 -3 -10 -16 -14 -30 -4 -13
-14 -30 -21 -38 -8 -7 -14 -20 -14 -28 0 -8 -4 -14 -9 -14 -5 0 -13 -10 -17
-22 -3 -12 -13 -28 -20 -36 -8 -7 -14 -20 -14 -28 0 -8 -4 -14 -10 -14 -5 0
-10 -6 -10 -13 0 -7 -7 -22 -15 -32 -9 -11 -51 -74 -95 -140 -99 -149 -102
-155 -117 -171 -7 -7 -13 -17 -13 -22 0 -5 -9 -17 -20 -27 -11 -10 -20 -22
-20 -27 0 -5 -11 -19 -25 -32 -14 -13 -25 -27 -25 -30 0 -7 -26 -40 -95 -125
-11 -13 -37 -43 -57 -65 -21 -23 -38 -44 -38 -47 0 -25 -624 -649 -649 -649
-3 0 -25 -17 -47 -38 -49 -43 -121 -104 -137 -114 -17 -10 -67 -51 -87 -70
-10 -9 -27 -19 -38 -22 -11 -4 -23 -13 -26 -21 -3 -8 -12 -15 -20 -15 -8 0
-16 -4 -18 -8 -1 -4 -39 -32 -83 -62 -44 -30 -82 -57 -85 -61 -3 -3 -12 -9
-20 -12 -8 -4 -42 -25 -75 -47 -33 -22 -68 -43 -77 -46 -10 -4 -18 -10 -18
-15 0 -5 -6 -9 -14 -9 -8 0 -21 -6 -28 -13 -7 -7 -34 -23 -60 -37 -27 -14 -48
-28 -48 -31 0 -4 -12 -10 -27 -14 -15 -3 -30 -10 -33 -13 -3 -4 -27 -18 -55
-32 -27 -14 -52 -27 -55 -30 -15 -15 -282 -140 -299 -140 -6 0 -11 -4 -11 -10
0 -5 -5 -10 -11 -10 -10 0 -89 -32 -119 -49 -9 -5 -30 -12 -48 -16 -18 -3 -32
-11 -32 -16 0 -5 -8 -9 -17 -9 -10 0 -31 -7 -47 -15 -15 -8 -33 -15 -40 -15
-6 0 -24 -7 -39 -15 -15 -8 -43 -17 -62 -21 -19 -3 -35 -10 -35 -15 0 -5 -10
-9 -22 -9 -13 0 -35 -6 -50 -14 -14 -8 -45 -17 -67 -21 -23 -4 -41 -10 -41
-15 0 -4 -20 -11 -45 -14 -24 -4 -47 -11 -50 -15 -2 -5 -26 -12 -52 -16 -27
-4 -52 -10 -58 -13 -10 -7 -80 -24 -170 -43 -27 -5 -57 -13 -65 -16 -18 -8
-123 -29 -230 -46 -41 -7 -79 -15 -85 -18 -5 -4 -50 -10 -100 -14 -49 -4 -94
-10 -100 -14 -13 -8 -238 -28 -465 -41 -190 -12 -706 -5 -755 10 -16 5 -88 14
-160 19 -120 9 -330 35 -330 41 0 1 -36 8 -80 16 -119 20 -218 39 -235 47 -8
3 -37 11 -65 16 -90 19 -160 36 -170 43 -5 3 -31 9 -58 13 -26 4 -50 11 -52
16 -3 4 -26 11 -50 15 -25 3 -45 10 -45 14 0 4 -17 10 -39 14 -21 3 -51 13
-67 21 -16 8 -39 15 -51 15 -13 0 -23 4 -23 9 0 6 -20 13 -45 17 -25 3 -45 10
-45 14 0 5 -14 11 -31 15 -17 4 -42 13 -57 21 -15 8 -32 14 -39 14 -6 0 -24 6
-40 14 -52 27 -101 46 -117 46 -9 0 -16 5 -16 10 0 6 -5 10 -11 10 -7 0 -30 9
-53 19 -23 11 -48 22 -56 25 -8 3 -22 10 -30 15 -8 5 -33 17 -55 27 -22 11
-41 22 -43 27 -2 4 -9 7 -14 7 -12 0 -160 71 -168 81 -3 3 -27 16 -55 30 -27
13 -52 26 -55 29 -3 3 -16 11 -30 18 -32 15 -60 33 -78 50 -7 6 -20 12 -28 12
-8 0 -14 5 -14 10 0 6 -6 10 -13 10 -6 0 -34 16 -61 35 -27 19 -55 35 -62 35
-6 0 -14 7 -18 15 -3 8 -12 15 -21 15 -8 0 -15 4 -15 10 0 5 -11 12 -24 16
-14 3 -27 12 -30 20 -3 8 -12 14 -21 14 -8 0 -15 3 -15 8 0 4 -18 18 -40 32
-22 13 -40 28 -40 32 0 4 -6 8 -13 8 -8 0 -22 9 -32 20 -10 11 -24 20 -31 20
-7 0 -14 4 -16 9 -1 5 -34 32 -73 62 -38 29 -72 56 -75 60 -3 4 -29 25 -59 48
-166 124 -525 475 -722 705 -13 15 -33 38 -44 51 -11 12 -27 32 -35 45 -8 12
-20 28 -25 34 -6 6 -35 43 -64 81 -30 39 -57 72 -62 73 -5 2 -9 8 -9 12 0 8
-78 120 -110 157 -5 7 -10 17 -10 23 0 6 -6 13 -14 16 -8 3 -17 16 -20 30 -4
13 -11 24 -16 24 -6 0 -10 4 -10 10 0 5 -22 43 -50 83 -27 41 -50 79 -50 85 0
7 -4 12 -10 12 -5 0 -10 6 -10 14 0 8 -6 21 -13 28 -16 18 -34 46 -49 78 -7
14 -15 27 -18 30 -3 3 -16 28 -29 55 -14 28 -27 52 -30 55 -10 9 -141 276
-141 288 0 7 -4 12 -10 12 -5 0 -10 7 -10 15 0 8 -9 32 -20 52 -11 21 -20 43
-20 50 0 7 -4 13 -10 13 -5 0 -10 7 -10 16 0 9 -6 30 -14 47 -43 94 -57 130
-73 181 -9 31 -21 56 -25 56 -4 0 -8 10 -8 23 0 12 -6 34 -14 49 -8 15 -17 42
-21 60 -4 18 -11 38 -15 43 -4 6 -11 26 -15 45 -4 19 -11 40 -15 45 -4 6 -11
29 -15 52 -4 24 -10 45 -15 48 -4 3 -11 28 -15 55 -4 27 -10 52 -15 55 -4 3
-11 26 -15 51 -4 26 -10 54 -15 63 -15 31 -37 133 -76 351 -46 264 -70 467
-85 720 -11 199 -3 839 12 885 5 17 13 66 18 110 27 229 33 272 41 290 5 11
13 52 19 90 16 109 31 189 41 206 4 9 11 41 15 73 4 31 11 58 15 61 5 3 11 28
15 55 4 27 11 52 15 55 4 3 11 28 15 55 4 27 11 52 15 55 5 3 11 24 15 48 4
23 11 47 15 52 4 6 11 26 15 45 4 19 11 40 15 45 4 6 11 25 15 43 4 18 13 45
21 60 8 15 14 37 14 50 0 12 4 22 8 22 4 0 16 26 25 57 10 31 24 71 32 88 37
82 55 129 55 141 0 8 5 14 10 14 6 0 10 5 10 11 0 18 184 403 200 419 3 3 16
28 30 55 14 28 27 52 30 55 3 3 11 16 18 30 18 37 64 114 71 120 4 3 12 16 19
30 15 32 33 60 49 78 7 7 13 18 13 23 0 5 5 15 10 22 39 46 50 61 50 69 0 5 6
15 13 22 6 8 19 24 27 36 8 12 36 51 63 87 26 35 47 68 47 73 0 4 4 10 9 12 9
3 81 95 81 103 0 2 12 18 28 34 15 16 32 36 37 43 178 232 601 655 833 833 7
5 27 22 43 38 16 15 32 27 34 27 8 0 100 72 103 81 2 5 8 9 13 9 9 0 100 66
109 80 3 4 15 10 28 14 12 4 22 12 22 17 0 5 7 9 15 9 9 0 18 7 21 15 4 8 12
15 19 15 10 0 24 9 72 50 7 5 17 10 22 10 5 0 16 6 23 13 21 18 50 36 81 50
15 6 27 15 27 19 0 4 6 8 14 8 8 0 21 6 28 13 18 16 46 34 78 49 14 7 27 15
30 18 3 3 28 16 55 30 28 14 52 27 55 30 16 16 401 200 419 200 6 0 11 4 11 9
0 5 13 12 30 16 16 4 32 11 35 16 4 5 13 9 21 9 8 0 34 9 57 19 23 10 67 27
97 37 30 11 57 22 58 27 2 4 13 7 25 7 12 0 34 6 49 14 15 8 42 17 60 21 18 4
38 11 43 15 6 4 26 11 45 15 19 4 40 11 45 15 6 4 27 11 49 14 21 4 46 11 55
16 16 9 72 24 151 41 25 5 52 14 60 18 9 5 40 12 70 16 30 4 61 11 70 16 16 9
96 24 205 40 39 6 77 13 85 17 26 11 362 53 540 68 108 9 543 21 574 16 16 -2
99 -8 185 -13z"/>
<path d="M5880 10500 c-14 -4 -65 -9 -115 -10 -49 -1 -121 -5 -160 -10 -185
-24 -232 -31 -250 -40 -11 -5 -44 -12 -72 -15 -29 -4 -55 -10 -58 -15 -3 -4
-30 -11 -60 -15 -30 -3 -55 -10 -55 -15 0 -4 -20 -11 -45 -14 -24 -4 -47 -11
-50 -16 -3 -4 -23 -11 -45 -15 -22 -4 -40 -11 -40 -16 0 -5 -8 -9 -17 -9 -10
0 -30 -6 -45 -14 -15 -8 -40 -17 -57 -21 -17 -4 -31 -10 -31 -15 0 -4 -16 -11
-35 -14 -19 -4 -35 -11 -35 -16 0 -4 -13 -11 -30 -15 -16 -4 -30 -10 -30 -15
0 -5 -13 -11 -30 -15 -16 -4 -30 -11 -30 -16 0 -5 -6 -9 -14 -9 -8 0 -21 -6
-28 -12 -7 -7 -35 -24 -61 -38 -26 -13 -47 -28 -47 -31 0 -4 -11 -10 -25 -13
-14 -4 -25 -11 -25 -16 0 -6 -7 -10 -15 -10 -9 0 -18 -7 -21 -15 -4 -8 -12
-15 -19 -15 -6 0 -23 -9 -36 -20 -34 -28 -45 -36 -134 -103 -39 -29 -323 -314
-355 -356 -14 -18 -32 -41 -40 -51 -8 -10 -22 -28 -30 -40 -8 -12 -23 -31 -32
-42 -10 -12 -18 -27 -18 -33 0 -7 -7 -15 -15 -19 -8 -3 -15 -12 -15 -21 0 -8
-4 -15 -10 -15 -5 0 -12 -11 -16 -25 -3 -14 -10 -25 -15 -25 -5 0 -9 -6 -9
-13 0 -8 -9 -24 -20 -37 -11 -13 -20 -29 -20 -37 0 -7 -4 -13 -9 -13 -5 0 -12
-13 -16 -30 -4 -16 -10 -30 -15 -30 -5 0 -11 -13 -15 -30 -4 -16 -11 -30 -16
-30 -5 0 -9 -6 -9 -12 -1 -7 -9 -31 -20 -53 -11 -22 -19 -48 -20 -57 0 -10 -4
-18 -10 -18 -5 0 -12 -16 -16 -35 -3 -19 -10 -37 -14 -40 -5 -3 -11 -23 -15
-45 -4 -22 -11 -42 -16 -45 -4 -3 -11 -28 -15 -55 -4 -28 -10 -50 -14 -50 -5
0 -11 -27 -15 -60 -4 -33 -11 -60 -15 -60 -4 0 -11 -33 -15 -72 -4 -40 -11
-80 -16 -89 -8 -16 -32 -326 -32 -419 0 -100 24 -425 33 -435 4 -5 11 -45 15
-87 4 -43 10 -80 15 -83 4 -3 11 -34 15 -70 3 -36 10 -65 15 -65 4 0 11 -27
15 -60 4 -33 11 -60 15 -60 4 0 11 -20 14 -45 4 -24 11 -47 15 -50 5 -2 11
-23 15 -45 3 -22 11 -40 16 -40 6 0 10 -9 10 -21 0 -18 27 -90 50 -131 6 -10
10 -24 10 -31 0 -7 17 -47 37 -88 21 -41 36 -77 35 -81 -1 -5 2 -8 7 -8 5 0
12 -13 16 -30 4 -16 10 -30 15 -30 5 0 11 -13 15 -30 4 -16 10 -30 15 -30 5 0
11 -13 15 -30 4 -17 10 -30 13 -30 4 0 18 -25 32 -55 14 -30 28 -55 32 -55 3
0 9 -13 13 -30 4 -16 11 -30 16 -30 5 0 9 -6 9 -13 0 -8 9 -24 20 -37 11 -13
20 -29 20 -37 0 -7 4 -13 9 -13 5 0 12 -13 16 -30 4 -17 11 -30 16 -30 5 0 9
-6 9 -14 0 -8 6 -21 13 -28 6 -7 23 -36 37 -63 14 -27 31 -56 37 -63 7 -7 13
-20 13 -28 0 -8 4 -14 9 -14 5 0 12 -13 16 -30 4 -16 11 -30 16 -30 5 0 9 -6
9 -14 0 -8 6 -21 14 -28 7 -8 17 -25 21 -38 4 -14 11 -27 14 -30 10 -8 141
-275 141 -288 0 -7 5 -12 10 -12 6 0 10 -6 10 -12 1 -7 9 -31 20 -53 11 -22
19 -46 20 -52 0 -7 4 -13 9 -13 5 0 12 -18 16 -40 4 -22 11 -40 16 -40 5 0 9
-8 9 -17 0 -10 7 -31 15 -46 8 -15 17 -43 21 -63 3 -19 10 -37 15 -39 4 -3 11
-33 15 -66 4 -32 11 -62 15 -65 12 -7 12 -390 0 -412 -5 -9 -14 -53 -19 -97
-13 -99 -33 -198 -43 -205 -3 -3 -10 -25 -14 -50 -4 -25 -11 -49 -15 -55 -4
-5 -11 -25 -15 -43 -4 -18 -13 -45 -21 -60 -8 -15 -14 -35 -14 -44 0 -9 -4
-20 -10 -23 -5 -3 -10 -14 -10 -23 -1 -9 -9 -35 -20 -57 -11 -22 -19 -46 -20
-53 0 -7 -4 -20 -10 -30 -5 -9 -19 -39 -30 -67 -11 -27 -24 -57 -29 -65 -5 -9
-12 -30 -16 -48 -3 -18 -11 -32 -15 -32 -5 0 -12 -16 -16 -35 -3 -19 -10 -35
-15 -35 -4 0 -11 -16 -15 -35 -3 -19 -10 -35 -14 -35 -4 0 -11 -16 -14 -35 -4
-19 -11 -35 -16 -35 -5 0 -12 -16 -16 -35 -3 -19 -10 -35 -14 -35 -5 0 -11
-18 -15 -40 -4 -22 -11 -40 -15 -40 -5 0 -12 -16 -16 -35 -3 -19 -10 -35 -14
-35 -5 0 -11 -18 -15 -40 -4 -22 -11 -42 -16 -46 -12 -7 -12 -71 1 -79 6 -3
10 -15 10 -25 0 -10 6 -25 13 -32 7 -7 16 -21 20 -31 4 -10 21 -24 37 -30 17
-6 30 -15 30 -19 0 -4 772 -8 1715 -8 1137 0 1715 3 1715 10 0 6 5 10 11 10
19 0 78 66 85 96 4 15 8 95 9 178 1 138 17 253 35 266 4 3 11 16 15 30 4 13
13 29 19 36 6 6 18 22 26 35 23 37 82 89 100 89 9 0 20 4 26 10 17 17 160 31
414 41 135 5 254 14 265 19 11 4 60 11 109 14 49 4 94 10 100 15 6 4 33 11 60
15 27 3 54 10 60 15 6 5 28 12 49 16 20 4 37 11 37 15 0 5 14 11 30 15 17 4
30 10 30 13 0 4 18 18 40 32 22 13 40 28 40 32 0 4 5 8 12 8 12 0 72 60 98
100 8 12 23 33 33 45 9 13 17 28 17 34 0 6 4 11 10 11 5 0 12 16 16 35 3 19
10 35 14 35 5 0 11 19 15 43 4 23 11 44 16 47 7 5 17 77 36 260 3 30 0 84 -6
120 -6 36 -13 104 -16 151 l-6 85 60 62 c33 34 63 72 67 84 4 13 12 26 18 30
15 10 14 200 -2 206 -19 6 -14 36 10 52 12 8 44 36 71 62 44 42 50 53 55 97 4
44 -1 61 -34 128 -21 43 -41 80 -45 83 -15 13 -42 85 -43 118 -1 34 1 37 39
45 22 5 122 12 223 16 117 4 185 10 190 17 4 6 18 15 31 19 28 8 91 66 91 83
0 6 5 12 11 14 6 2 13 25 16 51 3 26 9 50 13 52 5 3 4 20 -1 38 -4 17 -11 58
-14 90 -4 31 -10 57 -15 57 -4 0 -11 20 -14 45 -4 25 -12 45 -18 45 -6 0 -8 9
-5 20 3 11 -3 30 -14 44 -10 13 -19 27 -19 31 0 12 -99 216 -109 225 -3 3 -24
41 -46 85 -22 44 -43 82 -47 83 -5 2 -8 9 -8 15 0 13 -38 89 -49 97 -3 3 -15
22 -26 44 -11 21 -25 41 -32 43 -7 3 -13 10 -13 17 0 13 -22 44 -62 87 -16 16
-28 32 -28 34 0 8 -72 100 -81 103 -5 2 -9 9 -9 16 0 11 -10 25 -50 73 -6 7
-13 27 -17 45 -3 18 -11 39 -17 47 -7 9 -10 129 -11 361 0 242 -3 351 -11 361
-6 8 -15 44 -19 81 -3 37 -10 70 -15 73 -4 2 -11 34 -15 70 -3 36 -10 67 -15
70 -4 3 -11 28 -15 55 -4 27 -10 52 -15 55 -4 3 -11 26 -15 52 -4 27 -10 50
-15 53 -4 3 -11 25 -14 50 -5 35 -4 41 4 28 6 -10 17 -18 25 -18 7 0 15 -6 17
-12 6 -16 155 -18 166 -3 4 6 24 21 44 35 20 14 47 41 60 62 13 21 26 38 30
38 4 0 10 16 14 35 3 19 10 38 15 41 12 7 12 121 0 128 -4 3 -11 31 -14 62 -3
31 -11 62 -16 67 -6 6 -11 17 -11 25 0 26 -70 172 -82 172 -5 0 -8 7 -8 15 0
9 -7 18 -15 21 -8 4 -15 11 -15 18 0 18 -27 51 -121 145 -93 93 -115 112 -172
151 -20 14 -37 28 -37 33 0 4 -5 7 -10 7 -11 0 -70 39 -80 52 -3 3 -18 10 -33
13 -15 4 -27 10 -27 14 0 3 -21 18 -47 31 -27 14 -50 28 -53 32 -3 3 -18 10
-33 13 -15 4 -27 11 -27 16 0 5 -6 9 -12 9 -7 1 -31 9 -53 20 -22 11 -48 19
-57 20 -10 0 -18 4 -18 10 0 5 -16 12 -35 16 -19 3 -35 10 -35 15 0 5 -10 9
-22 9 -13 0 -35 6 -50 14 -15 8 -42 17 -60 21 -18 4 -37 11 -43 15 -5 5 -31
11 -58 15 -26 4 -49 11 -52 15 -3 5 -29 11 -58 15 -28 4 -57 11 -62 16 -6 4
-42 11 -80 15 -39 4 -72 11 -75 15 -3 4 -65 11 -138 15 -73 4 -132 10 -132 15
0 4 -13 10 -30 14 -16 4 -30 10 -30 15 0 5 -13 11 -30 15 -16 4 -30 10 -30 15
0 5 -13 11 -30 15 -16 4 -30 10 -30 15 0 5 -13 11 -30 15 -16 4 -30 10 -30 15
0 5 -13 11 -30 15 -16 4 -30 11 -30 16 0 5 -5 9 -11 9 -9 0 -45 15 -136 56
-17 8 -38 14 -47 14 -9 0 -16 4 -16 10 0 5 -16 12 -35 16 -19 3 -35 10 -35 14
0 5 -18 11 -40 15 -22 4 -40 11 -40 15 0 5 -20 12 -45 16 -25 3 -45 10 -45 14
0 5 -22 11 -50 15 -27 4 -52 11 -55 15 -3 4 -33 11 -67 15 -35 4 -65 11 -68
15 -16 25 -744 52 -810 30z m1680 -889 c0 -5 23 -11 50 -15 28 -4 50 -11 50
-15 0 -5 18 -12 40 -16 22 -4 40 -11 40 -16 0 -5 6 -9 14 -9 22 0 28 -32 21
-107 l-7 -68 61 -57 c34 -32 61 -61 61 -65 0 -4 18 -27 39 -50 31 -36 44 -43
74 -43 21 0 37 5 37 10 0 18 49 11 70 -10 11 -11 22 -31 26 -45 3 -14 10 -27
14 -30 5 -3 12 -30 15 -60 4 -31 11 -58 16 -61 14 -8 11 -128 -3 -142 -7 -7
-22 -12 -34 -12 -13 0 -25 -4 -28 -9 -3 -4 -19 -11 -36 -14 -22 -5 -31 -13
-36 -34 -3 -15 -9 -37 -14 -48 -5 -11 -12 -35 -15 -53 -4 -18 -13 -45 -21 -60
-8 -15 -14 -35 -14 -44 0 -10 -4 -18 -10 -18 -14 0 -12 -48 3 -66 6 -8 24 -29
40 -45 15 -16 27 -34 27 -40 0 -20 -63 -104 -104 -138 -10 -9 -35 -31 -55 -49
-20 -18 -46 -35 -58 -38 -13 -4 -23 -10 -23 -15 0 -22 -35 -5 -77 36 -48 49
-77 56 -125 31 -15 -8 -53 -17 -85 -21 -32 -4 -79 -13 -106 -22 -37 -12 -48
-20 -53 -41 -3 -15 -13 -42 -21 -61 l-15 -34 -76 7 c-42 4 -79 11 -82 15 -3 5
-24 12 -47 16 -24 4 -43 10 -43 15 0 4 -12 11 -26 14 -14 4 -35 15 -46 26 -18
16 -19 26 -13 92 l7 73 -76 77 c-42 43 -76 81 -76 86 0 15 -37 43 -56 44 -11
0 -42 -1 -71 -2 -59 -3 -80 11 -89 59 -4 17 -10 31 -15 31 -4 0 -11 27 -15 60
-4 33 -11 60 -15 60 -5 0 -9 27 -9 61 0 71 13 89 70 96 22 3 40 10 40 14 0 5
7 9 15 9 8 0 17 12 20 28 4 15 10 34 15 43 4 9 11 37 15 63 4 25 11 46 15 46
4 0 11 16 14 35 4 19 12 35 18 35 16 0 3 92 -15 104 -8 6 -25 18 -36 26 -36
25 -25 50 58 129 115 111 130 122 165 128 28 4 38 0 67 -30 19 -19 45 -36 59
-38 34 -3 120 11 120 21 0 4 35 11 77 15 64 6 82 11 100 32 13 13 23 30 23 38
0 7 8 27 18 44 16 29 21 31 75 31 31 0 57 -4 57 -9z m-2526 -480 c3 -5 27 -12
53 -16 27 -4 53 -10 58 -15 6 -4 25 -11 43 -15 17 -3 32 -10 32 -15 0 -5 12
-11 28 -14 33 -8 68 -62 52 -81 -20 -25 -24 -112 -6 -140 9 -14 21 -25 26 -25
11 0 76 -65 100 -100 55 -80 79 -100 121 -100 21 0 41 5 44 10 3 6 19 10 35
10 31 0 72 -43 84 -90 4 -14 11 -34 16 -45 10 -22 28 -122 37 -197 6 -58 -16
-84 -80 -93 -62 -9 -97 -44 -97 -95 0 -22 -4 -40 -9 -40 -5 0 -12 -22 -16 -50
-4 -27 -11 -50 -15 -50 -5 0 -11 -13 -15 -30 -4 -16 -11 -32 -16 -35 -12 -8
-12 -75 1 -75 6 0 10 -6 10 -13 0 -7 13 -24 30 -37 21 -18 29 -34 30 -57 0
-18 -4 -33 -9 -33 -5 0 -13 -9 -16 -20 -8 -26 -128 -147 -154 -155 -10 -3 -22
-12 -25 -20 -3 -8 -12 -15 -21 -15 -8 0 -15 -4 -15 -10 0 -5 -19 -10 -42 -10
-36 0 -46 5 -61 28 -34 50 -64 65 -113 57 -24 -3 -44 -10 -44 -15 0 -5 -27
-12 -60 -16 -33 -4 -63 -11 -66 -15 -3 -5 -25 -9 -49 -9 -54 0 -90 -29 -100
-80 -12 -64 -28 -75 -102 -72 -36 1 -71 6 -77 11 -6 4 -28 12 -50 15 -21 4
-46 11 -55 16 -9 5 -36 18 -61 30 -25 12 -53 30 -62 41 -20 20 -24 55 -8 61 6
2 13 26 16 54 l6 51 -91 93 c-50 51 -93 101 -97 112 -3 10 -16 21 -30 24 -13
3 -24 10 -24 15 0 12 -37 11 -45 -1 -3 -5 -27 -10 -53 -10 -53 1 -74 20 -87
80 -4 19 -11 37 -15 40 -9 7 -31 122 -36 195 -5 76 11 99 79 108 62 9 89 36
95 99 2 26 8 48 12 48 4 0 11 20 14 45 4 25 11 45 16 45 5 0 12 16 16 35 3 19
10 35 15 35 28 0 -3 73 -48 116 -23 22 -33 94 -14 94 5 0 12 8 15 18 8 24 93
111 139 142 20 14 37 28 37 33 0 4 6 7 14 7 7 0 19 7 26 15 23 28 59 17 107
-30 39 -39 50 -45 86 -45 23 0 55 7 71 15 16 8 54 18 85 21 79 7 161 33 161
50 0 8 4 14 9 14 5 0 11 18 15 41 4 22 12 47 19 54 13 16 122 21 131 6z m1735
-989 c3 -5 21 -13 39 -17 38 -8 41 -17 45 -140 2 -83 4 -91 25 -100 12 -5 22
-13 22 -17 0 -5 5 -8 11 -8 16 0 103 -43 107 -52 2 -5 9 -8 17 -8 7 0 18 -7
25 -15 19 -23 69 -19 94 8 43 44 85 67 123 67 34 0 45 -7 103 -69 79 -85 90
-97 90 -110 0 -5 8 -17 18 -27 32 -33 15 -134 -23 -134 -4 0 -25 -18 -48 -40
-38 -39 -39 -42 -33 -87 3 -26 10 -49 14 -52 4 -4 14 -28 20 -56 36 -143 33
-140 136 -148 87 -8 94 -13 115 -83 22 -72 -7 -258 -46 -300 -24 -26 -27 -27
-107 -20 -98 7 -109 1 -150 -84 -29 -61 -47 -92 -59 -101 -4 -3 -12 -20 -17
-38 -11 -39 -1 -68 37 -109 15 -17 34 -38 41 -46 14 -18 16 -76 3 -76 -5 0
-13 -9 -16 -20 -10 -31 -63 -81 -141 -132 -108 -72 -142 -73 -184 -10 -49 73
-69 85 -129 79 -30 -3 -57 -10 -60 -16 -4 -5 -30 -13 -59 -17 -28 -3 -52 -10
-52 -15 0 -5 -9 -9 -19 -9 -31 0 -51 -28 -51 -70 0 -21 -4 -42 -10 -45 -5 -3
-10 -21 -10 -38 0 -48 -13 -59 -77 -68 -65 -9 -256 7 -261 22 -2 5 -9 9 -16 9
-7 0 -21 8 -30 19 -13 15 -17 36 -15 102 1 98 -5 117 -37 125 -13 3 -24 10
-24 14 0 5 -13 11 -30 15 -16 4 -30 10 -30 15 0 5 -13 11 -30 15 -16 4 -30 11
-30 15 0 5 -16 16 -35 25 -34 17 -35 17 -82 -17 -26 -18 -52 -39 -56 -45 -4
-7 -15 -13 -22 -13 -8 0 -15 -4 -15 -10 0 -18 -48 -10 -75 13 -55 44 -125 120
-139 149 -3 7 -17 33 -31 57 -14 24 -25 51 -25 58 0 16 83 103 97 103 31 0 59
89 33 105 -5 3 -10 14 -10 23 0 9 -7 29 -14 44 -8 16 -18 49 -22 75 -4 26 -14
54 -22 63 -22 22 -81 40 -132 40 -35 0 -50 5 -65 23 -18 19 -20 36 -19 145 1
67 6 128 11 135 6 6 13 25 17 41 13 52 27 58 137 57 93 -2 101 0 106 19 3 11
9 20 14 20 5 0 9 5 9 11 0 16 42 101 58 117 6 7 12 19 12 27 0 7 5 15 12 17
18 6 14 69 -5 80 -9 5 -17 14 -17 20 0 6 -12 22 -27 36 -23 21 -28 34 -28 71
0 43 4 50 68 114 38 37 72 67 77 67 5 0 15 6 22 13 25 22 79 47 103 47 25 0
76 -44 106 -90 9 -14 28 -31 42 -39 22 -12 30 -12 60 3 19 9 42 16 50 16 9 0
18 4 21 9 4 5 30 12 59 16 28 4 54 10 57 14 3 3 14 11 25 17 16 9 22 27 29 90
9 76 22 103 56 118 22 9 262 -1 269 -12z"/>
<path d="M7285 9193 c-11 -3 -24 -9 -29 -14 -6 -5 -17 -9 -26 -9 -28 0 -150
-95 -150 -117 0 -7 -4 -13 -10 -13 -5 0 -12 -11 -16 -25 -3 -14 -10 -25 -15
-25 -4 0 -11 -16 -15 -35 -3 -19 -10 -38 -15 -41 -12 -7 -11 -181 1 -189 6 -3
10 -14 10 -23 0 -49 126 -200 180 -217 14 -4 27 -11 30 -16 6 -9 111 -31 150
-31 39 0 144 22 150 31 3 5 16 12 30 16 55 17 180 167 180 217 0 9 5 20 10 23
12 8 13 182 1 189 -5 3 -12 22 -15 41 -4 19 -11 35 -15 35 -5 0 -12 11 -15 25
-4 14 -11 25 -16 25 -6 0 -10 6 -10 13 0 14 -33 46 -75 73 -16 10 -33 22 -36
26 -3 5 -31 17 -62 28 -54 19 -169 26 -222 13z"/>
<path d="M4730 8654 c-8 -3 -29 -12 -47 -20 -17 -8 -34 -14 -37 -14 -22 0
-164 -143 -171 -173 -4 -15 -10 -27 -14 -27 -4 0 -16 -28 -26 -62 -21 -68 -24
-213 -5 -232 5 -5 10 -16 10 -24 0 -20 42 -102 52 -102 4 0 8 -6 8 -12 0 -17
53 -73 90 -95 16 -9 30 -20 30 -24 0 -4 12 -10 27 -14 15 -3 30 -10 33 -15 6
-10 122 -33 165 -32 86 1 239 55 252 89 3 7 11 13 18 13 7 0 26 16 41 36 16
19 34 41 39 47 17 20 55 103 55 120 0 9 5 19 10 22 12 8 13 192 1 199 -4 3
-11 24 -15 46 -3 22 -10 40 -15 40 -5 0 -12 11 -15 25 -9 34 -121 145 -171
169 -22 10 -49 24 -60 30 -21 11 -230 19 -255 10z"/>
<path d="M6558 7535 c-2 -2 -39 -8 -84 -14 -44 -5 -93 -17 -109 -25 -17 -9
-36 -16 -42 -16 -7 0 -13 -4 -13 -10 0 -5 -7 -10 -15 -10 -9 0 -18 -7 -21 -15
-4 -8 -12 -15 -19 -15 -8 0 -34 -21 -59 -46 -25 -25 -46 -51 -46 -59 0 -7 -7
-15 -15 -19 -8 -3 -15 -12 -15 -21 0 -8 -4 -15 -9 -15 -5 0 -13 -15 -16 -32
-4 -18 -12 -39 -19 -47 -7 -9 -11 -64 -11 -150 0 -141 1 -143 53 -250 22 -43
146 -171 166 -171 9 0 16 -4 16 -9 0 -5 14 -12 30 -16 17 -4 30 -10 30 -14 0
-11 89 -32 159 -38 52 -5 126 5 220 30 26 7 61 28 85 49 22 21 49 46 60 56 58
52 136 180 136 222 0 10 5 22 10 25 6 3 10 52 10 110 0 58 -4 107 -10 110 -5
3 -10 15 -10 26 0 19 -36 103 -62 143 -22 34 -105 116 -117 116 -6 0 -11 4
-11 10 0 5 -11 12 -25 16 -14 3 -25 10 -25 14 0 5 -13 11 -30 15 -16 4 -30 10
-30 15 0 5 -26 11 -57 15 -32 3 -68 10 -80 15 -11 5 -23 7 -25 5z"/>
</g>
</svg>
